<?xml version="1.0" encoding="utf-8" ?>
<svg baseProfile="full" height="1872" version="1.1" width="1404" xmlns="http://www.w3.org/2000/svg" xmlns:ev="http://www.w3.org/2001/xml-events" xmlns:xlink="http://www.w3.org/1999/xlink"><defs /><polyline points="302.0,311.0 302.0,311.0 301.9773864746094,311.03570556640625 302.0086975097656,311.0086975097656 302.05633544921875,310.9957275390625 302.2461242675781,311.18328857421875 303.87274169921875,310.9051818847656 306.3678894042969,310.85498046875 308.3147277832031,310.7574768066406 308.974609375,310.5220947265625" style="fill:none;stroke:black;stroke-width:2.000;opacity:1" /><polyline points="308.974609375,310.5220947265625 309.36798095703125,310.5284729003906 311.1388854980469,310.42340087890625 312.4579162597656,310.3402404785156 313.4391784667969,310.1755065917969 314.3611755371094,310.1343078613281 315.5069580078125,310.0605773925781 319.17681884765625,310.0335388183594 321.319091796875,309.7525939941406 322.77490234375,309.6943664550781 324.1710205078125,309.5564270019531" style="fill:none;stroke:black;stroke-width:2.000;opacity:1" /><polyline points="324.1710205078125,309.5564270019531 326.3481750488281,309.2622985839844 328.4798583984375,309.1005859375 330.5212707519531,308.9260559082031 332.67572021484375,308.4459228515625 334.92315673828125,308.1021423339844 337.16058349609375,307.8587341308594 339.4399719238281,307.6035461425781 341.5860290527344,307.55975341796875 343.6880798339844,307.37506103515625 345.87451171875,307.2984313964844" style="fill:none;stroke:black;stroke-width:2.000;opacity:1" /><polyline points="345.87451171875,307.2984313964844 349.97357177734375,307.4471740722656 361.21429443359375,307.544189453125 375.6061096191406,307.43878173828125 380.3748779296875,307.2412109375 381.25787353515625,307.1925354003906 382.5205993652344,307.1377868652344 388.65570068359375,307.25054931640625 395.4735412597656,307.1141357421875 401.78955078125,307.00091552734375 405.16082763671875,306.8950500488281" style="fill:none;stroke:black;stroke-width:2.000;opacity:1" /><polyline points="405.16082763671875,306.8950500488281 410.7948303222656,306.8115539550781 414.52984619140625,306.6982421875 417.62237548828125,306.60797119140625 425.64056396484375,306.7514953613281 430.24029541015625,306.9002685546875 433.07794189453125,306.9619140625 435.3705139160156,307.0051574707031 438.66107177734375,307.0840148925781 441.8167724609375,307.26483154296875 444.9346618652344,307.4336242675781" style="fill:none;stroke:black;stroke-width:2.000;opacity:1" /><polyline points="444.9346618652344,307.4336242675781 447.9742126464844,307.71038818359375 451.1346435546875,307.96685791015625 454.4886474609375,308.3246154785156 457.8001708984375,308.681396484375 461.043212890625,308.80926513671875 464.4111022949219,308.9671936035156 468.0838928222656,309.0257263183594 471.64849853515625,308.8912048339844 477.94659423828125,308.8079833984375 482.33172607421875,308.7055969238281" style="fill:none;stroke:black;stroke-width:2.000;opacity:1" /><polyline points="482.33172607421875,308.7055969238281 488.96649169921875,308.6506652832031 493.0511169433594,308.5737609863281 496.5572814941406,308.40069580078125 499.7228088378906,308.3550720214844 503.72723388671875,308.2794494628906 507.763427734375,308.1979064941406 511.674072265625,308.1189270019531 515.5205688476562,308.03302001953125 519.4481811523438,307.94671630859375 523.7325439453125,307.7547607421875" style="fill:none;stroke:black;stroke-width:2.000;opacity:1" /><polyline points="523.7325439453125,307.7547607421875 528.0167236328125,307.57171630859375 532.0753173828125,307.39349365234375 536.1928100585938,307.22296142578125 540.6300048828125,307.1611022949219 545.1561889648438,306.9702453613281 549.6336059570312,306.6839294433594 554.0709838867188,306.5247497558594 558.5136108398438,306.3482971191406 562.9601440429688,306.2796936035156 567.4102172851562,306.1992492675781" style="fill:none;stroke:black;stroke-width:2.000;opacity:1" /><polyline points="567.4102172851562,306.1992492675781 571.9437255859375,305.89605712890625 576.5064086914062,305.62152099609375 581.1466674804688,305.5654296875 585.790771484375,305.3726806640625 590.2705688476562,305.1953125 594.6937255859375,305.1282958984375 599.2118530273438,304.9306640625 604.02880859375,304.7506103515625 609.2295532226562,304.5750732421875 614.3233032226562,304.2784118652344" style="fill:none;stroke:black;stroke-width:2.000;opacity:1" /><polyline points="614.3233032226562,304.2784118652344 619.224853515625,304.0099792480469 624.1406860351562,303.85589599609375 629.204833984375,303.5774230957031 634.2269897460938,303.5250549316406 639.2064819335938,303.4452209472656 644.0985717773438,303.2445068359375 648.586181640625,303.1661071777344 652.96875,303.0722961425781 657.3953857421875,302.9767761230469 661.8983154296875,302.8856506347656" style="fill:none;stroke:black;stroke-width:2.000;opacity:1" /><polyline points="661.8983154296875,302.8856506347656 666.5513916015625,303.0038757324219 683.2819213867188,302.88134765625 691.0572509765625,302.5039978027344 694.874267578125,302.4751892089844 697.2506713867188,302.39508056640625 701.6351318359375,302.2054443359375 705.6536865234375,302.040771484375 709.73876953125,301.8703308105469 714.0034790039062,301.697998046875 718.1781616210938,301.4151306152344" style="fill:none;stroke:black;stroke-width:2.000;opacity:1" /><polyline points="718.1781616210938,301.4151306152344 722.36083984375,301.1516418457031 726.4536743164062,300.994384765625 730.4320678710938,300.6083679199219 734.2111206054688,300.3585205078125 737.7932739257812,299.9947509765625 740.9429321289062,299.526611328125 743.864501953125,299.4039306640625 746.6996459960938,299.2400817871094 748.941162109375,299.0520935058594 754.8182983398438,299.2667541503906" style="fill:none;stroke:black;stroke-width:2.000;opacity:1" /><polyline points="754.8182983398438,299.2667541503906 756.6917114257812,299.4930419921875 756.8587036132812,299.44610595703125 756.5173950195312,299.29754638671875 757.0175170898438,299.3951416015625 757.18212890625,299.42547607421875 757.5220336914062,299.467529296875 757.6055297851562,299.53668212890625 756.7913818359375,299.3208923339844 756.4136962890625,299.2310485839844 756.489013671875,299.2733154296875" style="fill:none;stroke:black;stroke-width:2.000;opacity:1" /><polyline points="756.489013671875,299.2733154296875 756.3914794921875,299.3421630859375 756.2288818359375,299.8144836425781" style="fill:none;stroke:black;stroke-width:2.000;opacity:1" /><polyline points="301.0,314.0 301.0,314.0 301.08966064453125,314.00506591796875 301.1573486328125,313.8908996582031 301.22247314453125,313.7381286621094 301.5497741699219,313.3753356933594 301.76165771484375,313.11541748046875 301.8281555175781,313.0341796875 301.8783264160156,312.77606201171875 301.8884582519531,313.0164794921875" style="fill:none;stroke:black;stroke-width:2.000;opacity:1" /><polyline points="301.8884582519531,313.0164794921875 301.8623962402344,313.3029479980469 301.3635559082031,313.3641357421875 301.67510986328125,313.3163146972656 301.51739501953125,313.35296630859375 301.2597351074219,313.3688049316406 301.13916015625,313.94415283203125 300.94561767578125,314.0348815917969 300.61480712890625,314.0600280761719 300.8041076660156,314.0372314453125 300.6363830566406,314.2385559082031" style="fill:none;stroke:black;stroke-width:2.000;opacity:1" /><polyline points="300.6363830566406,314.2385559082031 300.5168151855469,314.4386901855469 300.44244384765625,314.8317565917969 300.2249450683594,315.1451110839844 300.1943359375,316.04998779296875 299.9619140625,316.78173828125 299.7762451171875,317.5769348144531 299.612060546875,318.4342041015625 299.41387939453125,319.33660888671875 299.2332458496094,320.2166442871094 299.4800720214844,321.0733947753906" style="fill:none;stroke:black;stroke-width:2.000;opacity:1" /><polyline points="299.4800720214844,321.0733947753906 299.3429870605469,322.03424072265625 298.8243103027344,323.2190246582031 298.5658874511719,324.5281982421875 298.3874206542969,325.7810363769531 298.3704833984375,328.2108154296875 298.0203857421875,329.93365478515625 297.86431884765625,331.30145263671875 297.71539306640625,332.505859375 297.6336364746094,333.93634033203125 297.4443664550781,335.3681335449219" style="fill:none;stroke:black;stroke-width:2.000;opacity:1" /><polyline points="297.4443664550781,335.3681335449219 297.36083984375,336.64080810546875 297.2749328613281,337.9468078613281 297.0763244628906,339.35882568359375 296.890625,340.82598876953125 296.820068359375,342.431396484375 297.06890869140625,345.2691345214844 296.9353332519531,348.5240783691406 296.55517578125,350.37249755859375 296.509521484375,351.65203857421875 296.7033386230469,352.94451904296875" style="fill:none;stroke:black;stroke-width:2.000;opacity:1" /><polyline points="296.7033386230469,352.94451904296875 296.77545166015625,355.9504699707031 297.0359191894531,358.2219543457031 297.32037353515625,360.0813903808594 297.44219970703125,361.6591796875 297.5000305175781,363.533935546875 297.67437744140625,365.6669616699219 297.845947265625,367.8768615722656 298.1347961425781,369.8885192871094 298.71417236328125,371.712646484375 298.9249267578125,373.6523742675781" style="fill:none;stroke:black;stroke-width:2.000;opacity:1" /><polyline points="298.9249267578125,373.6523742675781 299.1761169433594,375.6277160644531 299.32574462890625,377.6817932128906 299.686279296875,379.9038391113281 300.05303955078125,382.257568359375 300.4176025390625,384.5267028808594 300.7688293457031,386.89813232421875 301.0079345703125,389.3890686035156 301.271484375,391.9071350097656 301.6339111328125,394.6329345703125 301.77764892578125,397.50396728515625" style="fill:none;stroke:black;stroke-width:2.000;opacity:1" /><polyline points="301.77764892578125,397.50396728515625 301.84844970703125,400.46087646484375 302.05206298828125,403.3094482421875 302.2377014160156,406.1283874511719 302.4272155761719,409.0293273925781 302.5157775878906,411.8944396972656 302.60931396484375,414.73260498046875 303.02032470703125,417.63922119140625 303.7080383300781,420.6650695800781 304.23785400390625,423.8179931640625 304.7723693847656,426.8786315917969" style="fill:none;stroke:black;stroke-width:2.000;opacity:1" /><polyline points="304.7723693847656,426.8786315917969 304.96612548828125,429.8958435058594 305.40576171875,432.89349365234375 306.0522155761719,435.99420166015625 306.4559020996094,439.2265319824219 307.00653076171875,442.5376892089844 307.5401306152344,445.85052490234375 307.9461364746094,449.31500244140625 308.39459228515625,452.7233581542969 308.83819580078125,456.1030578613281 309.280029296875,459.46392822265625" style="fill:none;stroke:black;stroke-width:2.000;opacity:1" /><polyline points="309.280029296875,459.46392822265625 309.7312927246094,462.8462829589844 310.1806945800781,466.2312316894531 310.5264892578125,469.5389709472656 310.8822937011719,472.822021484375 311.4495849609375,476.18731689453125 311.8786315917969,479.8495788574219 311.9046936035156,483.4029541015625 312.3170471191406,486.622314453125 312.676025390625,489.75323486328125 312.92645263671875,493.10699462890625" style="fill:none;stroke:black;stroke-width:2.000;opacity:1" /><polyline points="312.92645263671875,493.10699462890625 313.42901611328125,496.6221618652344 314.20733642578125,500.135986328125 314.38909912109375,503.72637939453125 314.42547607421875,507.4579772949219 314.6123962402344,511.3033447265625 314.7840270996094,515.0780639648438 315.08831787109375,518.720947265625 314.7252502441406,532.6746215820312 314.5754089355469,539.5112915039062 314.55810546875,546.1737060546875" style="fill:none;stroke:black;stroke-width:2.000;opacity:1" /><polyline points="314.55810546875,546.1737060546875 314.2969665527344,548.913330078125 314.0786437988281,552.5957641601562 313.88653564453125,556.0010986328125 313.62738037109375,560.2449340820312 313.4914245605469,564.5360107421875 313.32720947265625,568.7699584960938 313.26068115234375,572.8767700195312 312.96575927734375,576.9235229492188 312.5864562988281,581.0446166992188 312.2266540527344,585.1986694335938" style="fill:none;stroke:black;stroke-width:2.000;opacity:1" /><polyline points="312.2266540527344,585.1986694335938 311.8677673339844,589.3369750976562 311.5257263183594,593.6178588867188 311.0704040527344,597.8568115234375 310.5223693847656,601.9783325195312 310.1043395996094,606.0596313476562 309.5656433105469,610.1541748046875 309.14776611328125,614.3536376953125 308.6138916015625,618.6495361328125 308.29449462890625,623.048095703125 307.8404846191406,627.3585815429688" style="fill:none;stroke:black;stroke-width:2.000;opacity:1" /><polyline points="307.8404846191406,627.3585815429688 307.2825012207031,631.5420532226562 306.96044921875,635.6298217773438 306.494873046875,639.5430297851562 305.8427429199219,643.5107421875 305.429931640625,647.5487060546875 305.41204833984375,651.6804809570312 305.0056457519531,655.558349609375 304.4267883300781,659.12255859375 303.989990234375,662.4723510742188 303.538818359375,665.9099731445312" style="fill:none;stroke:black;stroke-width:2.000;opacity:1" /><polyline points="303.538818359375,665.9099731445312 303.1913146972656,669.265380859375 302.7393798828125,672.5899658203125 302.19293212890625,675.9794921875 301.9626159667969,679.1880493164062 301.5958557128906,682.2986450195312 301.2305603027344,685.1652221679688 300.8724060058594,687.8521728515625 300.1011047363281,690.303955078125 300.0095520019531,692.9097900390625 300.2628479003906,695.2872924804688" style="fill:none;stroke:black;stroke-width:2.000;opacity:1" /><polyline points="300.2628479003906,695.2872924804688 300.014892578125,697.2889404296875 299.8339538574219,699.2958984375 299.32470703125,701.2703857421875 299.25970458984375,703.2212524414062 299.3834228515625,704.9525756835938 299.2583312988281,706.566650390625 299.09759521484375,709.8855590820312 298.96124267578125,711.9144897460938 298.75927734375,713.2471313476562 298.6183776855469,714.1970825195312" style="fill:none;stroke:black;stroke-width:2.000;opacity:1" /><polyline points="298.6183776855469,714.1970825195312 298.5641784667969,716.5320434570312 298.2066650390625,718.4214477539062 298.81927490234375,718.8736572265625 298.6728820800781,719.0198974609375 298.6377258300781,719.0870971679688 298.54779052734375,719.005615234375 298.53192138671875,718.8534545898438 298.6688232421875,718.4985961914062 298.3642883300781,718.5594482421875 298.18048095703125,718.5761108398438" style="fill:none;stroke:black;stroke-width:2.000;opacity:1" /><polyline points="298.18048095703125,718.5761108398438 298.6302185058594,718.9413452148438 298.149169921875,719.1724243164062 298.06353759765625,718.6764526367188 297.1612548828125,719.105712890625" style="fill:none;stroke:black;stroke-width:2.000;opacity:1" /><polyline points="297.0,719.0 297.0,719.0 296.67132568359375,719.2025146484375 296.48748779296875,719.2296142578125 296.4645690917969,719.2099609375 296.3640441894531,719.2275390625 296.445556640625,719.1174926757812 296.62139892578125,719.019287109375 296.8608093261719,718.7489624023438 297.0765075683594,718.6403198242188" style="fill:none;stroke:black;stroke-width:2.000;opacity:1" /><polyline points="297.0765075683594,718.6403198242188 297.2581787109375,718.4432983398438 297.6324157714844,718.2648315429688 298.02447509765625,718.0718994140625 298.1357421875,717.9283447265625 298.40985107421875,717.8880004882812 300.86224365234375,718.2115478515625 302.04534912109375,718.3980102539062 303.42950439453125,718.4429321289062 304.0839538574219,718.449462890625 306.1890563964844,718.240966796875" style="fill:none;stroke:black;stroke-width:2.000;opacity:1" /><polyline points="306.1890563964844,718.240966796875 308.7669982910156,717.9599609375 310.7420349121094,717.7091674804688 312.4098205566406,717.535888671875 314.30389404296875,717.2784423828125 316.3092041015625,716.8952026367188 318.4249267578125,716.6619873046875 320.7188720703125,716.5210571289062 322.98089599609375,716.3512573242188 325.1041259765625,716.1823120117188 327.4332275390625,716.0140991210938" style="fill:none;stroke:black;stroke-width:2.000;opacity:1" /><polyline points="327.4332275390625,716.0140991210938 329.9405822753906,715.830810546875 332.39202880859375,715.6435546875 335.0133361816406,715.4694213867188 337.9410400390625,715.292724609375 341.0216979980469,715.1098022460938 343.9838562011719,714.9266357421875 346.7987976074219,714.8521118164062 349.9953918457031,714.6642456054688 353.57952880859375,714.481201171875 357.1439514160156,714.2958984375" style="fill:none;stroke:black;stroke-width:2.000;opacity:1" /><polyline points="357.1439514160156,714.2958984375 360.836669921875,714.1153564453125 364.48388671875,713.8287353515625 368.2833251953125,713.4547729492188 372.4976806640625,712.8967895507812 376.9296569824219,712.4613647460938 381.3254089355469,712.026123046875 385.6413879394531,711.490966796875 390.2073669433594,710.984130859375 394.8526611328125,710.4569702148438 399.5721740722656,710.0377197265625" style="fill:none;stroke:black;stroke-width:2.000;opacity:1" /><polyline points="399.5721740722656,710.0377197265625 404.1108703613281,709.7080688476562 408.9316711425781,709.3687133789062 413.925048828125,708.8009033203125 418.56451416015625,708.453125 422.94091796875,708.3082275390625 427.3910827636719,708.0267944335938 432.0394592285156,707.9686279296875 436.71881103515625,707.8740844726562 441.2119140625,707.6555786132812 445.7258605957031,707.35986328125" style="fill:none;stroke:black;stroke-width:2.000;opacity:1" /><polyline points="445.7258605957031,707.35986328125 450.68133544921875,707.0795288085938 455.6117248535156,706.7940673828125 460.447509765625,706.4164428710938 465.3811950683594,706.0687866210938 470.39678955078125,705.6075439453125 475.4060363769531,705.162353515625 480.3054504394531,704.7261352539062 485.2620849609375,704.0812377929688 490.5805969238281,703.3697509765625 495.9280700683594,702.8702392578125" style="fill:none;stroke:black;stroke-width:2.000;opacity:1" /><polyline points="495.9280700683594,702.8702392578125 501.1200866699219,702.2398071289062 506.32269287109375,701.7434692382812 511.9018249511719,701.3435668945312 517.17529296875,700.8841552734375 522.2227783203125,700.4403686523438 527.301513671875,700.2078857421875 532.2484130859375,699.9291381835938 536.8931884765625,699.8587036132812 541.55078125,699.6608276367188 546.618896484375,699.4633178710938" style="fill:none;stroke:black;stroke-width:2.000;opacity:1" /><polyline points="546.618896484375,699.4633178710938 551.5703735351562,699.2650146484375 565.132568359375,699.1416015625 572.1786499023438,698.8253173828125 576.197998046875,698.7567749023438 579.4031982421875,698.6973266601562 584.4095458984375,698.5950927734375 593.2587280273438,698.4255981445312 598.8502807617188,698.1721801757812 603.2261352539062,698.1072387695312 607.34716796875,697.9479370117188" style="fill:none;stroke:black;stroke-width:2.000;opacity:1" /><polyline points="607.34716796875,697.9479370117188 612.307373046875,697.7594604492188 616.82275390625,697.6880493164062 621.277099609375,697.6006469726562 625.935791015625,697.3040771484375 630.4443359375,697.2417602539062 634.9200439453125,697.1566772460938 639.5531005859375,697.0655517578125 644.1041870117188,696.7650146484375 648.0955810546875,696.589111328125 651.7642211914062,696.4171142578125" style="fill:none;stroke:black;stroke-width:2.000;opacity:1" /><polyline points="651.7642211914062,696.4171142578125 655.5317993164062,696.2442016601562 659.5834350585938,696.0756225585938 663.7730102539062,695.8983764648438 668.10302734375,695.5084228515625 672.11474609375,695.1384887695312 676.17138671875,694.9000244140625 680.3397216796875,694.7494506835938 684.417236328125,694.3646850585938 688.4166259765625,694.0134887695312 692.3299560546875,693.5550537109375" style="fill:none;stroke:black;stroke-width:2.000;opacity:1" /><polyline points="692.3299560546875,693.5550537109375 696.419677734375,693.2171630859375 700.3914794921875,692.9750366210938 703.9127807617188,692.7060546875 707.22119140625,692.5525512695312 710.487060546875,692.3765258789062 713.9725341796875,692.2990112304688 720.6640625,692.1397705078125 725.0755615234375,692.0149536132812 740.8735961914062,692.019287109375 747.0808715820312,691.801025390625" style="fill:none;stroke:black;stroke-width:2.000;opacity:1" /><polyline points="747.0808715820312,691.801025390625 749.5612182617188,691.7137451171875 753.574462890625,691.7911376953125 757.9866333007812,691.6498413085938 761.0628051757812,691.46435546875 763.6653442382812,691.4104614257812 775.2242431640625,691.3731689453125 783.5753784179688,691.1102905273438 786.86767578125,691.019287109375 788.0297241210938,690.9415893554688 790.5833740234375,690.8596801757812" style="fill:none;stroke:black;stroke-width:2.000;opacity:1" /><polyline points="790.5833740234375,690.8596801757812 793.6953125,690.6531372070312 796.8336181640625,690.250244140625 799.7922973632812,689.987548828125 802.4961547851562,689.7177734375 805.1165161132812,689.35595703125 807.766357421875,689.219970703125 810.2562866210938,688.8331909179688 812.6135864257812,688.5794067382812 814.9456176757812,688.4298095703125 817.1355590820312,688.1397705078125" style="fill:none;stroke:black;stroke-width:2.000;opacity:1" /><polyline points="817.1355590820312,688.1397705078125 819.209716796875,687.8738403320312 821.1848754882812,687.6072998046875 823.0032348632812,687.3316650390625 824.626220703125,687.063720703125 826.1426391601562,686.8009643554688 827.5906372070312,686.6377563476562 828.7135620117188,686.4500732421875 829.6779174804688,686.3746337890625 830.5662231445312,686.1895751953125 831.0930786132812,686.0880737304688" style="fill:none;stroke:black;stroke-width:2.000;opacity:1" /><polyline points="831.0930786132812,686.0880737304688 831.2169189453125,686.0263671875 831.2908935546875,685.9786376953125 831.4823608398438,685.9166870117188 831.436279296875,686.2484741210938 831.3838500976562,686.4695434570312 831.22412109375,686.1981811523438 831.3843994140625,686.3089599609375 831.1588134765625,685.9956665039062 831.17138671875,685.5208129882812 831.2421264648438,687.1565551757812" style="fill:none;stroke:black;stroke-width:2.000;opacity:1" /><polyline points="829.0,683.0 829.0,683.0 828.9531860351562,683.1112670898438 828.9765625,682.7998657226562 829.0204467773438,682.519775390625 829.0994873046875,682.27880859375 829.0226440429688,680.9904174804688 828.7817993164062,680.3563842773438 828.6109008789062,679.6095581054688 828.7838745117188,677.96923828125" style="fill:none;stroke:black;stroke-width:2.000;opacity:1" /><polyline points="828.7838745117188,677.96923828125 829.1282348632812,676.9766235351562 829.1918334960938,676.3685302734375 828.9142456054688,675.9439086914062 828.8088989257812,675.3075561523438 828.910400390625,674.694580078125 828.7721557617188,673.994873046875 828.6767578125,673.3590698242188 828.5885009765625,672.5745239257812 828.3707885742188,671.755615234375 828.1856689453125,670.9326171875" style="fill:none;stroke:black;stroke-width:2.000;opacity:1" /><polyline points="828.1856689453125,670.9326171875 828.0231323242188,669.9776000976562 827.9583740234375,668.8994140625 827.653564453125,667.9041748046875 827.4996948242188,666.8610229492188 827.7526245117188,665.8351440429688 827.5108642578125,664.6100463867188 827.0104370117188,663.2041015625 827.0056762695312,661.3920288085938 827.125244140625,659.551513671875 827.0076293945312,657.776123046875" style="fill:none;stroke:black;stroke-width:2.000;opacity:1" /><polyline points="827.0076293945312,657.776123046875 826.9295043945312,655.9634399414062 827.0403442382812,654.1109619140625 826.7921752929688,652.0906372070312 826.3877563476562,649.7969970703125 826.1317138671875,647.2633056640625 825.842041015625,645.0590209960938 825.7979125976562,643.1616821289062 825.5390625,640.9879760742188 824.9517211914062,638.4857788085938 824.6203002929688,635.896484375" style="fill:none;stroke:black;stroke-width:2.000;opacity:1" /><polyline points="824.6203002929688,635.896484375 824.3800659179688,633.3148193359375 824.243896484375,630.4268798828125 823.98193359375,627.3652954101562 823.3877563476562,624.236083984375 823.1627807617188,621.1192626953125 823.0128173828125,617.783935546875 822.733642578125,614.1536254882812 822.583740234375,610.3751220703125 822.400634765625,606.5474853515625 822.3141479492188,602.8201904296875" style="fill:none;stroke:black;stroke-width:2.000;opacity:1" /><polyline points="822.3141479492188,602.8201904296875 822.117431640625,598.8814697265625 822.0326538085938,594.7099609375 822.1533813476562,590.4072875976562 822.0220336914062,582.4953002929688 821.91943359375,573.3567504882812 821.66455078125,568.0448608398438 821.6085815429688,560.2427978515625 821.5072631835938,555.0197143554688 821.4195556640625,550.5257568359375 821.0842895507812,546.6060180664062" style="fill:none;stroke:black;stroke-width:2.000;opacity:1" /><polyline points="821.0842895507812,546.6060180664062 820.919921875,541.665283203125 821.1688232421875,536.7103271484375 821.2421264648438,531.7913208007812 821.329345703125,526.9248657226562 820.9816284179688,522.231201171875 821.223388671875,512.8184204101562 821.0777587890625,497.3912048339844 820.5908813476562,490.108642578125 820.5938720703125,486.7620544433594 820.42431640625,483.5396423339844" style="fill:none;stroke:black;stroke-width:2.000;opacity:1" /><polyline points="820.42431640625,483.5396423339844 819.8359985351562,478.1225891113281 819.5157470703125,472.7463073730469 819.0536499023438,467.8940124511719 818.3209228515625,463.1623840332031 817.6351928710938,458.2892150878906 817.1441040039062,453.3399963378906 816.419189453125,448.45745849609375 815.5126342773438,443.68499755859375 814.7450561523438,438.92218017578125 813.949951171875,434.33642578125" style="fill:none;stroke:black;stroke-width:2.000;opacity:1" /><polyline points="813.949951171875,434.33642578125 813.1612548828125,429.9517822265625 812.28955078125,425.5235595703125 811.3160400390625,420.7906799316406 810.2195434570312,416.0580139160156 809.1270751953125,411.79180908203125 808.2139892578125,407.4224548339844 807.0474853515625,402.96978759765625 805.56982421875,398.4659118652344 804.4688720703125,393.9571228027344 803.734375,389.719482421875" style="fill:none;stroke:black;stroke-width:2.000;opacity:1" /><polyline points="803.734375,389.719482421875 802.4449462890625,385.6951599121094 800.9996337890625,381.7096252441406 799.5604248046875,377.7455749511719 798.1083984375,374.0604248046875 797.112060546875,370.55816650390625 795.5814819335938,367.2352294921875 793.9849853515625,363.65960693359375 792.559326171875,360.1466369628906 791.1026611328125,357.0746154785156 790.0223999023438,354.15130615234375" style="fill:none;stroke:black;stroke-width:2.000;opacity:1" /><polyline points="790.0223999023438,354.15130615234375 788.7037353515625,351.2437744140625 787.1734619140625,348.1086120605469 785.9454956054688,344.86663818359375 784.6718139648438,341.87298583984375 783.431640625,339.0391540527344 782.3917236328125,336.2642822265625 781.6211547851562,333.57257080078125 780.7124633789062,331.00335693359375 779.7142333984375,328.337890625 778.7907104492188,325.77557373046875" style="fill:none;stroke:black;stroke-width:2.000;opacity:1" /><polyline points="778.7907104492188,325.77557373046875 777.868408203125,323.3507080078125 777.28125,320.9433288574219 776.538330078125,318.6991271972656 775.79931640625,316.6397399902344 775.1864624023438,314.5938415527344 774.53857421875,312.61224365234375 773.9982299804688,310.7059631347656 773.5501708984375,308.98797607421875 773.2072143554688,307.22149658203125 772.6273193359375,305.50885009765625" style="fill:none;stroke:black;stroke-width:2.000;opacity:1" /><polyline points="772.6273193359375,305.50885009765625 771.8529052734375,303.8787841796875 771.5333251953125,302.311767578125 771.2832641601562,300.7998352050781 770.9046020507812,299.4561767578125 770.653076171875,298.1143493652344 770.267578125,296.8535461425781 769.99609375,295.5796203613281 769.7142944335938,294.4779052734375 769.4359741210938,293.49249267578125 769.1665649414062,292.60125732421875" style="fill:none;stroke:black;stroke-width:2.000;opacity:1" /><polyline points="769.1665649414062,292.60125732421875 768.786865234375,291.7885437011719 768.5283203125,290.96282958984375 768.1351928710938,290.4019470214844 767.9678344726562,290.0199890136719 767.820556640625,289.688232421875 767.72802734375,289.47906494140625 767.3848266601562,289.4128723144531 767.57958984375,289.3946228027344 767.591796875,289.3577880859375 767.5299682617188,289.2715759277344" style="fill:none;stroke:black;stroke-width:2.000;opacity:1" /><polyline points="767.5299682617188,289.2715759277344 767.519287109375,289.2242126464844 767.3984375,289.2416076660156 767.7999877929688,289.17913818359375 767.6842651367188,289.3183898925781 767.84765625,289.4311218261719 767.982421875,289.6016540527344 767.7789306640625,289.79937744140625 767.6778564453125,290.15966796875 767.5767211914062,290.7506103515625 767.4506225585938,290.8877868652344" style="fill:none;stroke:black;stroke-width:2.000;opacity:1" /><polyline points="767.4506225585938,290.8877868652344 767.7562255859375,290.9918212890625 767.623046875,291.07684326171875 767.2974853515625,291.1551208496094 767.216796875,291.4131164550781 767.131103515625,291.5779113769531 767.2614135742188,291.6924743652344 766.91552734375,291.71356201171875 767.0428466796875,292.0260009765625 766.9531860351562,292.3144226074219 766.8389282226562,292.66558837890625" style="fill:none;stroke:black;stroke-width:2.000;opacity:1" /><polyline points="766.8389282226562,292.66558837890625 766.5404663085938,292.6667785644531 766.4427490234375,292.6520080566406 766.4080200195312,292.5754699707031 766.4291381835938,292.4555358886719 766.4104614257812,292.45281982421875 766.3623657226562,292.49041748046875 766.4210815429688,292.2696533203125 766.2505493164062,292.38055419921875 766.298583984375,292.29620361328125 766.2630004882812,292.3009338378906" style="fill:none;stroke:black;stroke-width:2.000;opacity:1" /><polyline points="766.2630004882812,292.3009338378906 766.2315673828125,292.34991455078125 765.9255981445312,292.4190979003906 765.89306640625,292.5596008300781 765.6827392578125,292.6173095703125 765.6143188476562,292.5888671875 765.687255859375,292.6866760253906 765.5223388671875,292.39154052734375 765.6359252929688,292.3130187988281 765.5986938476562,292.40740966796875 765.6388549804688,292.47796630859375" style="fill:none;stroke:black;stroke-width:2.000;opacity:1" /><polyline points="765.6388549804688,292.47796630859375 765.5467529296875,292.521728515625 765.543212890625,292.4027404785156 765.6594848632812,292.7666015625 765.80126953125,292.9224548339844 765.4960327148438,292.956787109375 765.2172241210938,293.0531921386719 765.137451171875,293.1980285644531 765.0346069335938,293.069091796875 764.76220703125,293.13134765625 764.6773071289062,293.3170471191406" style="fill:none;stroke:black;stroke-width:2.000;opacity:1" /><polyline points="764.6773071289062,293.3170471191406 764.555908203125,293.37200927734375 764.0285034179688,293.393310546875 764.2529907226562,293.4429016113281 763.8876342773438,293.429931640625 763.7432250976562,293.54949951171875 763.4559326171875,293.6395568847656 763.3699340820312,293.7087097167969 763.23876953125,293.839599609375 762.986083984375,293.909423828125 762.7501831054688,294.0377197265625" style="fill:none;stroke:black;stroke-width:2.000;opacity:1" /><polyline points="762.7501831054688,294.0377197265625 762.7625732421875,294.16729736328125 762.6666259765625,294.23468017578125 762.4683227539062,294.316162109375 762.3200073242188,294.21734619140625 762.4299926757812,294.265380859375 762.2334594726562,294.33270263671875 762.0147094726562,294.4420166015625 761.8054809570312,294.5755310058594 761.6846923828125,294.63458251953125 761.5755615234375,294.7595520019531" style="fill:none;stroke:black;stroke-width:2.000;opacity:1" /><polyline points="761.5755615234375,294.7595520019531 761.4764404296875,294.8613586425781 761.2964477539062,294.94329833984375 760.8594970703125,295.0050354003906 760.5424194335938,295.11669921875 760.28955078125,295.2065734863281 760.1317138671875,295.2996520996094 759.953369140625,295.3994140625 759.8579711914062,295.5077209472656 759.7793579101562,295.7029724121094 759.6615600585938,295.8029479980469" style="fill:none;stroke:black;stroke-width:2.000;opacity:1" /><polyline points="759.6615600585938,295.8029479980469 759.6177978515625,295.72833251953125 759.5460205078125,295.8000793457031 759.3800048828125,295.8658447265625 759.1800537109375,296.06494140625 758.9306640625,296.18853759765625 758.861328125,296.3674011230469 758.8184204101562,296.2879943847656 758.6680297851562,296.3601379394531 758.5650024414062,296.4522399902344 758.14697265625,296.47064208984375" style="fill:none;stroke:black;stroke-width:2.000;opacity:1" /><polyline points="758.14697265625,296.47064208984375 757.86767578125,296.6404113769531 757.8921508789062,296.6085510253906 757.9058837890625,296.5833740234375 757.8070678710938,296.03564453125 756.931396484375,295.5845031738281" style="fill:none;stroke:black;stroke-width:2.000;opacity:1" /></svg>